<mxfile host="app.diagrams.net" agent="Mozilla/5.0 (Windows NT 10.0; Win64; x64) AppleWebKit/537.36 (KHTML, like Gecko) Chrome/127.0.0.0 Safari/537.36" version="24.7.6">
  <diagram name="Page-1" id="XDxnwa7jgJgjYt_MhX32">
    <mxGraphModel dx="1050" dy="557" grid="1" gridSize="10" guides="1" tooltips="1" connect="1" arrows="1" fold="1" page="1" pageScale="1" pageWidth="850" pageHeight="1100" math="0" shadow="0">
      <root>
        <mxCell id="0" />
        <mxCell id="1" parent="0" />
        <mxCell id="515Z1BCMhGsTB-dATrxj-55" value="c" style="rounded=0;whiteSpace=wrap;html=1;strokeColor=#FFFFFF;" vertex="1" parent="1">
          <mxGeometry x="40" y="110" width="730" height="590" as="geometry" />
        </mxCell>
        <mxCell id="515Z1BCMhGsTB-dATrxj-56" value="" style="ellipse;html=1;strokeWidth=2;rotation=90;fillStyle=solid;fillColor=#050505;" vertex="1" parent="1">
          <mxGeometry x="411" y="119" width="30" height="30" as="geometry" />
        </mxCell>
        <mxCell id="515Z1BCMhGsTB-dATrxj-57" value="" style="endArrow=classic;html=1;rounded=0;exitX=1;exitY=0.5;exitDx=0;exitDy=0;entryX=0;entryY=0.5;entryDx=0;entryDy=0;" edge="1" parent="1">
          <mxGeometry width="50" height="50" relative="1" as="geometry">
            <mxPoint x="455.5" y="241" as="sourcePoint" />
            <mxPoint x="620" y="240.5" as="targetPoint" />
          </mxGeometry>
        </mxCell>
        <mxCell id="515Z1BCMhGsTB-dATrxj-58" value="&lt;font style=&quot;font-size: 14px;&quot;&gt;&lt;b&gt;[unauthorized]&lt;/b&gt;&lt;/font&gt;" style="text;html=1;align=center;verticalAlign=middle;whiteSpace=wrap;rounded=0;" vertex="1" parent="1">
          <mxGeometry x="488" y="220" width="120" height="20" as="geometry" />
        </mxCell>
        <mxCell id="515Z1BCMhGsTB-dATrxj-59" value="&lt;font style=&quot;font-size: 15px;&quot;&gt;&lt;b&gt;&lt;font style=&quot;font-size: 15px;&quot;&gt;Alert &quot;Not a valid administrator&lt;/font&gt;&lt;span style=&quot;background-color: initial;&quot;&gt;&quot;&lt;/span&gt;&lt;/b&gt;&lt;/font&gt;" style="rounded=1;whiteSpace=wrap;html=1;arcSize=40;" vertex="1" parent="1">
          <mxGeometry x="621" y="220" width="139" height="42" as="geometry" />
        </mxCell>
        <mxCell id="515Z1BCMhGsTB-dATrxj-60" value="" style="ellipse;html=1;shape=endState;fillColor=#000000;strokeColor=#030000;" vertex="1" parent="1">
          <mxGeometry x="676" y="295" width="29" height="30" as="geometry" />
        </mxCell>
        <mxCell id="515Z1BCMhGsTB-dATrxj-61" value="" style="endArrow=classic;html=1;rounded=0;exitX=0.5;exitY=1;exitDx=0;exitDy=0;entryX=0.5;entryY=0;entryDx=0;entryDy=0;" edge="1" parent="1" source="515Z1BCMhGsTB-dATrxj-59" target="515Z1BCMhGsTB-dATrxj-60">
          <mxGeometry width="50" height="50" relative="1" as="geometry">
            <mxPoint x="468.5" y="311" as="sourcePoint" />
            <mxPoint x="633" y="310.5" as="targetPoint" />
          </mxGeometry>
        </mxCell>
        <mxCell id="515Z1BCMhGsTB-dATrxj-62" value="&lt;font style=&quot;font-size: 14px;&quot;&gt;&lt;b&gt;[authorized]&lt;/b&gt;&lt;/font&gt;" style="text;html=1;align=center;verticalAlign=middle;whiteSpace=wrap;rounded=0;" vertex="1" parent="1">
          <mxGeometry x="311" y="253" width="85" height="24" as="geometry" />
        </mxCell>
        <mxCell id="515Z1BCMhGsTB-dATrxj-63" value="&lt;font style=&quot;font-size: 15px;&quot;&gt;&lt;b&gt;Validate Administrator&lt;/b&gt;&lt;/font&gt;" style="rounded=1;whiteSpace=wrap;html=1;arcSize=40;" vertex="1" parent="1">
          <mxGeometry x="343.5" y="170" width="167.5" height="30" as="geometry" />
        </mxCell>
        <mxCell id="515Z1BCMhGsTB-dATrxj-64" value="" style="rhombus;whiteSpace=wrap;html=1;" vertex="1" parent="1">
          <mxGeometry x="394.5" y="221" width="60" height="40" as="geometry" />
        </mxCell>
        <mxCell id="515Z1BCMhGsTB-dATrxj-65" value="" style="endArrow=classic;html=1;rounded=0;" edge="1" parent="1">
          <mxGeometry width="50" height="50" relative="1" as="geometry">
            <mxPoint x="425" y="200" as="sourcePoint" />
            <mxPoint x="425" y="221" as="targetPoint" />
          </mxGeometry>
        </mxCell>
        <mxCell id="515Z1BCMhGsTB-dATrxj-66" value="" style="endArrow=classic;html=1;rounded=0;" edge="1" parent="1">
          <mxGeometry width="50" height="50" relative="1" as="geometry">
            <mxPoint x="425" y="149" as="sourcePoint" />
            <mxPoint x="425" y="170" as="targetPoint" />
          </mxGeometry>
        </mxCell>
        <mxCell id="515Z1BCMhGsTB-dATrxj-67" value="&lt;span style=&quot;font-size: 15px;&quot;&gt;&lt;b&gt;Is Guilty&lt;/b&gt;&lt;/span&gt;" style="rounded=1;whiteSpace=wrap;html=1;arcSize=40;" vertex="1" parent="1">
          <mxGeometry x="370.5" y="447" width="108.5" height="30" as="geometry" />
        </mxCell>
        <mxCell id="515Z1BCMhGsTB-dATrxj-68" value="" style="endArrow=classic;html=1;rounded=0;" edge="1" parent="1">
          <mxGeometry width="50" height="50" relative="1" as="geometry">
            <mxPoint x="425" y="312" as="sourcePoint" />
            <mxPoint x="425" y="333" as="targetPoint" />
          </mxGeometry>
        </mxCell>
        <mxCell id="515Z1BCMhGsTB-dATrxj-69" value="&lt;span style=&quot;font-size: 15px;&quot;&gt;&lt;b&gt;Check report of rule violation&lt;/b&gt;&lt;/span&gt;" style="rounded=1;whiteSpace=wrap;html=1;arcSize=40;" vertex="1" parent="1">
          <mxGeometry x="311" y="283" width="231" height="30" as="geometry" />
        </mxCell>
        <mxCell id="515Z1BCMhGsTB-dATrxj-70" value="&lt;span style=&quot;font-size: 15px;&quot;&gt;&lt;b&gt;Conduct a meeting with concerned member&lt;/b&gt;&lt;/span&gt;" style="rounded=1;whiteSpace=wrap;html=1;arcSize=40;" vertex="1" parent="1">
          <mxGeometry x="258" y="394" width="338" height="30" as="geometry" />
        </mxCell>
        <mxCell id="515Z1BCMhGsTB-dATrxj-71" value="" style="endArrow=classic;html=1;rounded=0;" edge="1" parent="1">
          <mxGeometry width="50" height="50" relative="1" as="geometry">
            <mxPoint x="425" y="262" as="sourcePoint" />
            <mxPoint x="425" y="283" as="targetPoint" />
          </mxGeometry>
        </mxCell>
        <mxCell id="515Z1BCMhGsTB-dATrxj-72" value="" style="rhombus;whiteSpace=wrap;html=1;" vertex="1" parent="1">
          <mxGeometry x="394.5" y="333" width="60" height="40" as="geometry" />
        </mxCell>
        <mxCell id="515Z1BCMhGsTB-dATrxj-73" value="" style="endArrow=classic;html=1;rounded=0;exitX=0;exitY=0.5;exitDx=0;exitDy=0;entryX=1;entryY=0.5;entryDx=0;entryDy=0;" edge="1" parent="1" source="515Z1BCMhGsTB-dATrxj-72" target="515Z1BCMhGsTB-dATrxj-75">
          <mxGeometry width="50" height="50" relative="1" as="geometry">
            <mxPoint x="403.5" y="396" as="sourcePoint" />
            <mxPoint x="568" y="395.5" as="targetPoint" />
          </mxGeometry>
        </mxCell>
        <mxCell id="515Z1BCMhGsTB-dATrxj-74" value="&lt;font style=&quot;font-size: 14px;&quot;&gt;&lt;b&gt;[not any complain]&lt;/b&gt;&lt;/font&gt;" style="text;html=1;align=center;verticalAlign=middle;whiteSpace=wrap;rounded=0;" vertex="1" parent="1">
          <mxGeometry x="227" y="331" width="133" height="20" as="geometry" />
        </mxCell>
        <mxCell id="515Z1BCMhGsTB-dATrxj-75" value="&lt;font style=&quot;font-size: 15px;&quot;&gt;&lt;b&gt;&lt;font style=&quot;font-size: 15px;&quot;&gt;Alert &quot;Does&#39;t have any Complain&lt;/font&gt;&lt;span style=&quot;background-color: initial;&quot;&gt;&quot;&lt;/span&gt;&lt;/b&gt;&lt;/font&gt;" style="rounded=1;whiteSpace=wrap;html=1;arcSize=40;" vertex="1" parent="1">
          <mxGeometry x="54" y="331" width="139" height="42" as="geometry" />
        </mxCell>
        <mxCell id="515Z1BCMhGsTB-dATrxj-76" value="" style="endArrow=classic;html=1;rounded=0;exitX=0.5;exitY=1;exitDx=0;exitDy=0;entryX=0.5;entryY=0;entryDx=0;entryDy=0;" edge="1" parent="1">
          <mxGeometry width="50" height="50" relative="1" as="geometry">
            <mxPoint x="124" y="373" as="sourcePoint" />
            <mxPoint x="124" y="406" as="targetPoint" />
          </mxGeometry>
        </mxCell>
        <mxCell id="515Z1BCMhGsTB-dATrxj-77" value="" style="ellipse;html=1;shape=endState;fillColor=#000000;strokeColor=#030000;" vertex="1" parent="1">
          <mxGeometry x="109" y="406" width="29" height="30" as="geometry" />
        </mxCell>
        <mxCell id="515Z1BCMhGsTB-dATrxj-78" value="" style="endArrow=classic;html=1;rounded=0;" edge="1" parent="1">
          <mxGeometry width="50" height="50" relative="1" as="geometry">
            <mxPoint x="425" y="372" as="sourcePoint" />
            <mxPoint x="425" y="393" as="targetPoint" />
          </mxGeometry>
        </mxCell>
        <mxCell id="515Z1BCMhGsTB-dATrxj-81" value="&lt;font style=&quot;font-size: 14px;&quot;&gt;&lt;b&gt;[complain]&lt;/b&gt;&lt;/font&gt;" style="text;html=1;align=center;verticalAlign=middle;whiteSpace=wrap;rounded=0;" vertex="1" parent="1">
          <mxGeometry x="442" y="366" width="73" height="20" as="geometry" />
        </mxCell>
        <mxCell id="515Z1BCMhGsTB-dATrxj-84" value="" style="endArrow=classic;html=1;rounded=0;" edge="1" parent="1">
          <mxGeometry width="50" height="50" relative="1" as="geometry">
            <mxPoint x="425" y="425" as="sourcePoint" />
            <mxPoint x="425" y="446" as="targetPoint" />
          </mxGeometry>
        </mxCell>
        <mxCell id="515Z1BCMhGsTB-dATrxj-88" value="" style="endArrow=classic;html=1;rounded=0;" edge="1" parent="1">
          <mxGeometry width="50" height="50" relative="1" as="geometry">
            <mxPoint x="425" y="477" as="sourcePoint" />
            <mxPoint x="425" y="498" as="targetPoint" />
          </mxGeometry>
        </mxCell>
        <mxCell id="515Z1BCMhGsTB-dATrxj-91" value="&lt;span style=&quot;font-size: 15px;&quot;&gt;&lt;b&gt;issuses warning or fine to member&lt;/b&gt;&lt;/span&gt;" style="rounded=1;whiteSpace=wrap;html=1;arcSize=40;" vertex="1" parent="1">
          <mxGeometry x="289" y="561" width="265" height="28" as="geometry" />
        </mxCell>
        <mxCell id="515Z1BCMhGsTB-dATrxj-92" value="" style="endArrow=classic;html=1;rounded=0;" edge="1" parent="1">
          <mxGeometry width="50" height="50" relative="1" as="geometry">
            <mxPoint x="425" y="539" as="sourcePoint" />
            <mxPoint x="425" y="560" as="targetPoint" />
          </mxGeometry>
        </mxCell>
        <mxCell id="515Z1BCMhGsTB-dATrxj-99" value="" style="endArrow=classic;html=1;rounded=0;" edge="1" parent="1">
          <mxGeometry width="50" height="50" relative="1" as="geometry">
            <mxPoint x="425" y="590" as="sourcePoint" />
            <mxPoint x="425" y="611" as="targetPoint" />
          </mxGeometry>
        </mxCell>
        <mxCell id="515Z1BCMhGsTB-dATrxj-102" value="" style="ellipse;html=1;shape=endState;fillColor=#000000;strokeColor=#030000;" vertex="1" parent="1">
          <mxGeometry x="410.5" y="660" width="29" height="30" as="geometry" />
        </mxCell>
        <mxCell id="515Z1BCMhGsTB-dATrxj-114" value="&lt;span style=&quot;font-size: 14px;&quot;&gt;&lt;b&gt;[Not Guilty]&lt;/b&gt;&lt;/span&gt;" style="text;html=1;align=center;verticalAlign=middle;whiteSpace=wrap;rounded=0;" vertex="1" parent="1">
          <mxGeometry x="490" y="497" width="100" height="20" as="geometry" />
        </mxCell>
        <mxCell id="515Z1BCMhGsTB-dATrxj-115" value="&lt;font style=&quot;font-size: 15px;&quot;&gt;&lt;b&gt;&lt;font style=&quot;font-size: 15px;&quot;&gt;Alert &quot;case is dismissed&lt;/font&gt;&lt;span style=&quot;background-color: initial;&quot;&gt;&quot;&lt;/span&gt;&lt;/b&gt;&lt;/font&gt;" style="rounded=1;whiteSpace=wrap;html=1;arcSize=40;" vertex="1" parent="1">
          <mxGeometry x="621" y="498" width="135" height="42" as="geometry" />
        </mxCell>
        <mxCell id="515Z1BCMhGsTB-dATrxj-116" value="" style="ellipse;html=1;shape=endState;fillColor=#000000;strokeColor=#030000;" vertex="1" parent="1">
          <mxGeometry x="674" y="574" width="29" height="30" as="geometry" />
        </mxCell>
        <mxCell id="515Z1BCMhGsTB-dATrxj-117" value="" style="rhombus;whiteSpace=wrap;html=1;" vertex="1" parent="1">
          <mxGeometry x="394.5" y="498" width="60" height="40" as="geometry" />
        </mxCell>
        <mxCell id="515Z1BCMhGsTB-dATrxj-118" value="" style="endArrow=classic;html=1;rounded=0;exitX=1;exitY=0.5;exitDx=0;exitDy=0;entryX=0;entryY=0.5;entryDx=0;entryDy=0;" edge="1" parent="1">
          <mxGeometry width="50" height="50" relative="1" as="geometry">
            <mxPoint x="454.5" y="518" as="sourcePoint" />
            <mxPoint x="619" y="517.5" as="targetPoint" />
          </mxGeometry>
        </mxCell>
        <mxCell id="515Z1BCMhGsTB-dATrxj-119" value="&lt;span style=&quot;font-size: 14px;&quot;&gt;&lt;b&gt;[Guilty]&lt;/b&gt;&lt;/span&gt;" style="text;html=1;align=center;verticalAlign=middle;whiteSpace=wrap;rounded=0;" vertex="1" parent="1">
          <mxGeometry x="344" y="535" width="69" height="20" as="geometry" />
        </mxCell>
        <mxCell id="515Z1BCMhGsTB-dATrxj-122" value="" style="endArrow=classic;html=1;rounded=0;exitX=0.5;exitY=1;exitDx=0;exitDy=0;entryX=0.5;entryY=0;entryDx=0;entryDy=0;" edge="1" parent="1">
          <mxGeometry width="50" height="50" relative="1" as="geometry">
            <mxPoint x="689" y="541" as="sourcePoint" />
            <mxPoint x="689" y="574" as="targetPoint" />
          </mxGeometry>
        </mxCell>
        <mxCell id="515Z1BCMhGsTB-dATrxj-123" value="&lt;span style=&quot;font-size: 15px;&quot;&gt;&lt;b&gt;Update member status&lt;/b&gt;&lt;/span&gt;" style="rounded=1;whiteSpace=wrap;html=1;arcSize=40;" vertex="1" parent="1">
          <mxGeometry x="325" y="611" width="198" height="28" as="geometry" />
        </mxCell>
        <mxCell id="515Z1BCMhGsTB-dATrxj-124" value="" style="endArrow=classic;html=1;rounded=0;" edge="1" parent="1">
          <mxGeometry width="50" height="50" relative="1" as="geometry">
            <mxPoint x="425" y="639" as="sourcePoint" />
            <mxPoint x="425" y="660" as="targetPoint" />
          </mxGeometry>
        </mxCell>
      </root>
    </mxGraphModel>
  </diagram>
</mxfile>
